HIERARCHY
ROOT Hips
{
    OFFSET 0.000000 0.000000 0.000000
    CHANNELS 6 Xposition Yposition Zposition Zrotation Xrotation Yrotation
    JOINT Spine
    {
        OFFSET -0.000000 7.236184 0.000000
        CHANNELS 3 Zrotation Xrotation Yrotation
        JOINT Spine1
        {
            OFFSET -0.000000 20.420147 0.000000
            CHANNELS 3 Zrotation Xrotation Yrotation
            JOINT Neck
            {
                OFFSET -0.000000 20.336288 1.848754
                CHANNELS 3 Zrotation Xrotation Yrotation
                JOINT Head
                {
                    OFFSET -0.000000 12.354461 -1.764923
                    CHANNELS 3 Zrotation Xrotation Yrotation
                    End Site
                    {
                        OFFSET -0.000000 22.061537 0.000000
                    }
                }
            }
            JOINT LeftShoulder
            {
                OFFSET 3.573296 18.396038 -0.314103
                CHANNELS 3 Zrotation Xrotation Yrotation
                JOINT LeftArm
                {
                    OFFSET 10.880760 0.000000 0.000000
                    CHANNELS 3 Zrotation Xrotation Yrotation
                    JOINT LeftForeArm
                    {
                        OFFSET 27.185530 0.000000 0.000000
                        CHANNELS 3 Zrotation Xrotation Yrotation
                        JOINT LeftHand
                        {
                            OFFSET 27.825975 0.000000 0.000000
                            CHANNELS 3 Zrotation Xrotation Yrotation
                            End Site
                            {
                                OFFSET 13.236923 0.000000 0.000000
                            }
                        }
                    }
                }
            }
            JOINT RightShoulder
            {
                OFFSET -3.474926 18.396038 -0.314103
                CHANNELS 3 Zrotation Xrotation Yrotation
                JOINT RightArm
                {
                    OFFSET -10.880760 0.000000 0.000000
                    CHANNELS 3 Zrotation Xrotation Yrotation
                    JOINT RightForeArm
                    {
                        OFFSET -27.185530 0.000000 0.000000
                        CHANNELS 3 Zrotation Xrotation Yrotation
                        JOINT RightHand
                        {
                            OFFSET -27.825975 0.000000 0.000000
                            CHANNELS 3 Zrotation Xrotation Yrotation
                            End Site
                            {
                                OFFSET -13.236923 0.000000 0.000000
                            }
                        }
                    }
                }
            }
        }
    }
    JOINT LeftUpLeg
    {
        OFFSET 8.824615 0.000000 0.000000
        CHANNELS 3 Zrotation Xrotation Yrotation
        JOINT LeftLeg
        {
            OFFSET -0.000000 -35.111282 0.000000
            CHANNELS 3 Zrotation Xrotation Yrotation
            JOINT LeftFoot
            {
                OFFSET -0.000000 -42.324711 0.000000
                CHANNELS 3 Zrotation Xrotation Yrotation
                JOINT LeftToeBase
                {
                    OFFSET -0.000000 -5.735999 13.236923
                    CHANNELS 3 Zrotation Xrotation Yrotation
                    End Site
                    {
                        OFFSET -0.000000 0.000000 3.529846
                    }
                }
            }
        }
    }
    JOINT RightUpLeg
    {
        OFFSET -8.824615 0.000000 0.000000
        CHANNELS 3 Zrotation Xrotation Yrotation
        JOINT RightLeg
        {
            OFFSET -0.000000 -35.111282 0.000000
            CHANNELS 3 Zrotation Xrotation Yrotation
            JOINT RightFoot
            {
                OFFSET -0.000000 -42.324711 0.000000
                CHANNELS 3 Zrotation Xrotation Yrotation
                JOINT RightToeBase
                {
                    OFFSET -0.000000 -5.735999 13.236923
                    CHANNELS 3 Zrotation Xrotation Yrotation
                    End Site
                    {
                        OFFSET -0.000000 0.000000 3.529846
                    }
                }
            }
        }
    }
}
MOTION
Frames:    4
Frame Time:    0.008333
-5.444635    83.764717    103.159546    0.186993    -6.733196    -176.818588    -1.624627    -13.610485    0.600392    1.847168    7.449770    0.674122    -0.079005    9.031354    -3.739565    7.802259    -11.578242    -2.005800    -2.484045    17.733864    -2.533444    -43.680885    47.118511    -39.193375    2.504921    -6.248706    -23.235910    14.332301    -5.931663    -1.560707    8.072159    19.672789    -4.232258    35.296295    47.124947    41.320423    -9.359668    -11.645512    41.629681    -22.824348    -8.238770    0.535241    4.709868    -9.805523    -1.029353    -0.223995    10.909975    2.539923    -5.689418    -6.173588    -10.481940    -0.594482    0.052632    0.658899    -4.498273    -4.540627    0.854148    2.042198    2.710757    2.265626    0.410873    -2.607933    -9.465755    -2.085395    -0.262452    2.256289    
-5.456968    83.762566    103.150269    0.169961    -6.739088    -176.859100    -1.624076    -13.579530    0.613613    1.834366    7.443748    0.687697    -0.042393    8.991115    -3.730444    7.754295    -11.580777    -2.010156    -2.435775    17.779215    -2.492569    -43.924393    47.083744    -38.907959    2.517431    -6.362691    -23.659149    14.232504    -6.025726    -1.509046    8.084066    19.672838    -4.244116    35.277374    47.079479    41.300030    -9.372658    -11.613117    41.775761    -22.712578    -8.191491    0.557916    4.684394    -9.800526    -1.037092    -0.225124    10.915790    2.599508    -5.684385    -6.180717    -10.497860    -0.595392    0.053619    0.659907    -4.523333    -4.546427    0.858601    2.044950    2.711550    2.276707    0.416018    -2.608953    -9.447051    -2.086447    -0.266706    2.257442    
-5.469040    83.760468    103.141090    0.153466    -6.744959    -176.898514    -1.624214    -13.549726    0.626538    1.823746    7.438335    0.700988    -0.008464    8.951627    -3.721936    7.708293    -11.582948    -2.014544    -2.389974    17.821846    -2.452648    -44.163471    47.050140    -38.626442    2.530097    -6.473979    -24.080172    14.135536    -6.117168    -1.457637    8.094866    19.671980    -4.255672    35.258724    47.034729    41.279648    -9.387120    -11.581436    41.922287    -22.603321    -8.144042    0.579362    4.659783    -9.794960    -1.044919    -0.226427    10.920189    2.657235    -5.679321    -6.187488    -10.512584    -0.596172    0.054607    0.660770    -4.547587    -4.552021    0.862986    2.047486    2.712083    2.287067    0.421402    -2.609936    -9.428572    -2.087579    -0.270899    2.258679    
-5.480839    83.758492    103.131912    0.137833    -6.751271    -176.936493    -1.625377    -13.521648    0.639187    1.816684    7.433637    0.713900    0.021499    8.912188    -3.714391    7.664847    -11.583614    -2.019196    -2.346934    17.859941    -2.413809    -44.400703    47.019119    -38.345814    2.546332    -6.583166    -24.505039    14.039705    -6.205477    -1.405048    8.103863    19.670227    -4.267380    35.238815    46.991150    41.260174    -9.405113    -11.551409    42.072968    -22.495962    -8.095994    0.598737    4.636468    -9.788707    -1.052989    -0.227987    10.922154    2.712853    -5.674248    -6.193702    -10.525816    -0.596737    0.055645    0.661395    -4.570479    -4.557681    0.866883    2.049293    2.712231    2.296183    0.427022    -2.610885    -9.409750    -2.088855    -0.274916    2.260071    
